<svg width="25" height="25" viewBox="0 0 25 25" fill="none" xmlns="http://www.w3.org/2000/svg">
<path d="M5.87155 24.2184L0.772504 24.3177L0.460068 8.27072L5.55912 8.17144L5.87155 24.2184ZM2.96579 5.9715C1.3161 6.00362 0.09297 4.82721 0.0608504 3.17752C0.0287308 1.52784 1.35512 0.301784 2.85483 0.272585C4.50452 0.240465 5.72766 1.41688 5.75978 3.06656C5.79189 4.71625 4.61548 5.93939 2.96579 5.9715ZM24.468 23.8563L19.369 23.9556L19.1996 15.2573C19.15 12.7077 18.0856 11.9783 16.5859 12.0075C15.0861 12.0367 13.6098 13.2657 13.6536 15.5153L13.82 24.0636L8.721 24.1629L8.40857 8.11596L13.2077 8.02252L13.2515 10.2721C13.6809 9.21353 15.4485 7.52881 17.998 7.47917C20.8474 7.42369 23.879 9.01498 23.9754 13.964L24.1681 23.8622L24.468 23.8563Z" fill="#F53838"/>
</svg>
