<svg width="76" height="77" viewBox="0 0 76 77" fill="none" xmlns="http://www.w3.org/2000/svg">
<path fill-rule="evenodd" clip-rule="evenodd" d="M64.0226 11.1296C56.8414 4.17119 47.3555 0.549169 37.4577 0.705153C16.7195 1.03198 0.0193541 18.267 0.346177 39.0051C0.450167 45.6036 2.43947 52.1724 5.82786 57.7763L0.940402 76.7109L20.6543 71.2144C26.3547 73.9532 32.5115 75.7419 38.6387 75.6453C59.3769 75.3185 76.0771 58.0835 75.7503 37.3454C75.5943 27.4476 71.2039 18.088 64.0226 11.1296ZM38.5422 69.5182C32.8863 69.6073 27.2082 68.2825 22.4504 65.5288L21.5003 65.0723L9.76922 68.5573L12.8903 57.1936L11.9253 55.7945C8.54432 50.6619 7.04122 45.0283 6.95208 39.3725C6.68468 22.4049 20.6015 8.04238 37.5691 7.77498C46.0529 7.64128 53.6461 10.8217 59.8624 16.381C66.0862 22.4116 69.0329 29.9082 69.1666 38.392C69.4266 54.8883 55.9811 69.2433 38.5422 69.5182ZM55.1384 45.6847C54.1883 45.2282 49.438 42.9459 48.4954 42.9607C47.5453 42.5043 47.0738 42.5117 46.6174 43.4618C46.1609 44.4118 44.3054 46.3268 43.849 47.2769C43.3851 47.7556 42.9137 47.7631 41.971 47.7779C41.0209 47.3215 38.1783 46.4234 34.3557 43.1836C31.4906 40.8715 29.5533 37.602 29.0671 36.6668C28.581 35.7315 29.0449 35.2528 29.5088 34.774C29.9727 34.2953 30.4365 33.8165 30.9004 33.3378C31.3643 32.859 31.3569 32.3877 31.8208 31.909C32.2847 31.4302 31.806 30.9663 31.7985 30.495C31.7911 30.0237 29.8315 25.3402 28.8592 23.4697C28.3655 22.0632 27.4229 22.0781 26.9516 22.0855C26.4803 22.0929 26.0089 22.1003 25.0662 22.1152C24.5949 22.1226 23.6522 22.1375 22.7245 23.095C21.7967 24.0525 19.4773 26.4462 19.5516 31.1594C19.6258 35.8727 22.9919 40.0626 23.4781 40.9978C23.9568 41.4617 30.24 51.2629 39.7258 54.8849C47.7903 58.0579 49.1895 57.093 51.0748 57.0632C52.9601 57.0335 56.6935 54.6175 57.1351 52.7248C58.0406 50.3533 58.0109 48.468 57.5396 48.4755C57.0311 46.1263 56.0885 46.1411 55.1384 45.6847Z" fill="#F53838"/>
</svg>
